<svg xmlns="http://www.w3.org/2000/svg"  viewBox="0 0 50 50" width="50px" height="50px"><path d="M17.558 4c-1.963 0-3.927.012-5.891.012-.074 0-.148 0-.222 0-.121 0-.242.019-.381.03 0 11.248 0 22.473 0 33.711 2.145 0 4.262 0 6.416 0 0-3.486 0-6.94 0-10.467.779 0 1.538.003 2.288.003.623 0 1.239-.002 1.855-.01.005 0 .009 0 .014 0 .311 0 .496.11.68.355 2.45 3.271 4.914 6.531 7.362 9.803.188.251.378.344.685.344.003 0 .006 0 .008 0 1.285-.007 2.57-.009 3.855-.009.785 0 1.57 0 2.354 0 .308 0 .616 0 .924 0 .129 0 .26-.018.457-.032-3.195-4.234-6.349-8.412-9.511-12.6.175-.138.309-.242.442-.349 2.68-2.162 4.2-4.954 4.447-8.379.474-6.581-4.758-12.276-11.384-12.382C20.492 4.007 19.025 4 17.558 4L17.558 4zM18.112 10.395c.673 0 1.347-.014 2.02-.014.828 0 1.655.021 2.473.113 2.491.281 4.375 2.602 4.375 5.129 0 2.535-1.868 4.79-4.372 5.139-.615.086-1.241.099-1.869.099-.262 0-.525-.002-.787-.002-.176 0-.351.001-.526.004-.23.004-.46.006-.693.006-.398 0-.803-.004-1.229-.004 0-3.516 0-6.971 0-10.415.04-.027.065-.059.091-.059C17.767 10.394 17.94 10.395 18.112 10.395L18.112 10.395zM44.547 41.354c-12.992 0-25.984 0-39.099 0 .195.175.307.279.423.376 1.46 1.223 2.94 2.423 4.373 3.676C10.65 45.759 11.037 46 11.518 46c.151 0 .31-.024.483-.075.413-.123.862-.133 1.295-.193 4.38-.605 8.76-1.208 13.138-1.814 4.425-.613 8.851-1.23 13.276-1.845 1.615-.225 3.227-.45 4.842-.675C44.55 41.382 44.548 41.369 44.547 41.354L44.547 41.354z"/></svg>
