<svg id="site-logo" data-name="site-logo" xmlns="http://www.w3.org/2000/svg" viewBox="0 0 152 152" aria-label="みるめも">
  <title>みるめも</title>
  <desc>みるみのブログ</desc>
  <circle cx="76" cy="76" r="76" style="fill:#604134;stroke:#604134;stroke-miterlimit:10"/><path d="M126.28,71.25c.72,11-.45,14.48.72,16,.57.74,7.27,4.83,10,9,3.28,5,6,10.58-1.82,14.92-4.85,2.68-11.5-2.33-15.27-4.52-1.86,6.32-5.22,22.81-12.45,24.95-16,4.71-10.58-13.76-8-20.8,1.53-4.18,3.85-7.62,3.6-10.53-.14-1.75-2.62-3.72-3.92-4.7C94.32,92,88.29,90.1,82.57,88.2c-3.51,10-8.17,18.85-16,26.13-18.76,17.48-49.74,11-51.76-16.75C13,72.67,30.17,60.67,69.61,66.22,72.78,47.88,66,38.05,47.15,37.3c-6.2-.25-13.56.34-14.3-7.7C31.86,19,44.11,19.4,51.22,20c19.25,1.55,32.62,9.16,36.51,29.08,1.31,6.71.41,13.11-.39,19.81-.22,1.92,17.87,8.5,20.45,9.76.32-2.53.16-5.12.7-7.61C113,50.33,125.57,60.42,126.28,71.25Zm-91.11,29.2c7.11,18.57,34.5-8.93,30.08-16.34-.76-1.26-21.4-4.26-30,.14C30.53,86.67,32.55,93.62,35.17,100.45Z" style="fill:#fff"/>
</svg>