<?xml version="1.0" encoding="utf-8"?><!-- Uploaded to: SVG Repo, www.svgrepo.com, Generator: SVG Repo Mixer Tools -->
<svg width="800px" height="800px" viewBox="0 0 512 512" version="1.1" xmlns="http://www.w3.org/2000/svg"><path fill="#000000" d="M403.867 170.4L414.587 153.39H247.96L250.756 171.565C253.708 171.565 261.71 172.419 274.76 174.128C287.811 175.837 296.977 177.235 302.259 178.322C301.793 182.983 295.152 191.022 282.334 202.44C269.517 213.858 256 225.237 241.784 236.577C227.568 247.917 219.528 254.908 217.664 257.549C214.246 252.578 201.817 236.189 180.377 208.382C158.937 180.575 142.934 158.982 132.37 143.603C136.409 142.515 146.935 141.35 163.947 140.107C180.959 138.865 190.709 138.01 193.194 137.544L195.991 121H2.09741L0 138.476C2.79654 139.098 12.7786 140.535 29.9463 142.787C47.1139 145.04 56.7853 146.554 58.9604 147.331C69.2144 155.098 89.6058 177.895 120.135 215.722C150.664 253.548 167.016 275.569 169.191 281.782V341.435C169.191 345.94 167.637 349.474 164.53 352.037C161.423 354.601 157.072 356.659 151.479 358.212C138.118 361.941 125.456 363.261 113.493 362.174L108.599 381.98C117.765 382.291 126.621 382.446 135.166 382.446C143.711 382.446 155.014 382.33 169.074 382.097C183.135 381.864 191.796 381.747 195.059 381.747C257.204 381.747 289.908 381.98 293.171 382.446L295.501 360.077L237.939 356.115C237.162 309.822 237.162 284.656 237.939 280.617C239.959 274.87 250.135 263.801 268.468 247.412C286.801 231.023 305.211 215.8 323.7 201.741C342.188 187.682 353.296 180.187 357.025 179.255C385.767 173.817 401.381 170.866 403.867 170.4ZM512 171.798L421.112 326.289L389.651 317.434L440.222 150.127L512 171.798ZM354.928 380.582L395.477 392L411.091 357.28L369.376 345.629L354.928 380.582Z"></path></svg>
